<?xml version="1.0" standalone="no"?>
<!DOCTYPE svg PUBLIC "-//W3C//DTD SVG 1.1//EN" "http://www.w3.org/Graphics/SVG/1.1/DTD/svg11.dtd" >
<svg xmlns="http://www.w3.org/2000/svg">
<metadata>Generated by IcoMoon</metadata>
<defs>
<font id="sia-ico2" horiz-adv-x="1024">
<font-face units-per-em="1024" ascent="960" descent="-64" />
<missing-glyph horiz-adv-x="1024" />
<glyph unicode="&#x20;" horiz-adv-x="512" d="" />
<glyph unicode="&#xa907;" glyph-name="facebook_1" d="M384 618.667h-128v-170.667h128v-512h213.333v512h155.392l15.275 170.667h-170.667v71.125c0 40.747 8.192 56.875 47.573 56.875h123.093v213.333h-162.475c-153.429 0-221.525-67.541-221.525-196.907v-144.427z" />
<glyph unicode="&#xa909;" glyph-name="google_1" d="M325.792 502.592v-111.808h184.8c-7.392-48-55.808-140.608-184.8-140.608-111.2 0-202.016 92.192-202.016 205.792s90.816 205.792 202.016 205.792c63.392 0 105.6-27.008 129.792-50.208l88.384 85.184c-56.8 52.992-130.4 85.184-218.208 85.184-180.192-0.192-325.792-145.792-325.792-326.016s145.6-325.792 325.792-325.792c188 0 312.8 132.192 312.8 318.4 0 21.408-2.4 37.792-5.216 54.016h-307.616zM1024 512h-96v96h-96v-96h-96v-96h96v-96h96v96h96z" />
<glyph unicode="&#xa910;" glyph-name="instagram_1" d="M512 867.712c136.704 0 152.917-0.512 206.933-2.987 138.752-6.315 203.563-72.149 209.877-209.877 2.475-53.973 2.944-70.187 2.944-206.891 0-136.747-0.512-152.917-2.944-206.891-6.357-137.6-70.997-203.563-209.877-209.877-54.016-2.475-70.144-2.987-206.933-2.987-136.704 0-152.917 0.512-206.891 2.987-139.093 6.357-203.563 72.491-209.877 209.92-2.475 53.973-2.987 70.144-2.987 206.891 0 136.704 0.555 152.875 2.987 206.891 6.357 137.685 70.997 203.563 209.877 209.877 54.016 2.432 70.187 2.944 206.891 2.944zM512 960c-139.051 0-156.459-0.597-211.072-3.072-185.941-8.533-289.28-111.701-297.813-297.813-2.517-54.656-3.115-72.064-3.115-211.115s0.597-156.501 3.072-211.115c8.533-185.941 111.701-289.28 297.813-297.813 54.656-2.475 72.064-3.072 211.115-3.072s156.501 0.597 211.115 3.072c185.771 8.533 289.365 111.701 297.771 297.813 2.517 54.613 3.115 72.064 3.115 211.115s-0.597 156.459-3.072 211.072c-8.363 185.771-111.659 289.28-297.771 297.813-54.656 2.517-72.107 3.115-211.157 3.115zM512 710.912c-145.195 0-262.912-117.717-262.912-262.912s117.717-262.955 262.912-262.955 262.912 117.717 262.912 262.955c0 145.195-117.717 262.912-262.912 262.912zM512 277.333c-94.251 0-170.667 76.373-170.667 170.667 0 94.251 76.416 170.667 170.667 170.667s170.667-76.416 170.667-170.667c0-94.293-76.416-170.667-170.667-170.667zM785.323 782.72c-33.963 0-61.483-27.52-61.483-61.44s27.52-61.44 61.483-61.44c33.92 0 61.397 27.52 61.397 61.44s-27.477 61.44-61.397 61.44z" />
<glyph unicode="&#xa911;" glyph-name="linkedin_1" d="M384 576h177.12v-90.784h2.528c24.64 44.192 84.96 90.784 174.848 90.784 186.944 0 221.504-116.384 221.504-267.744v-308.256h-184.608v273.28c0 65.184-1.344 149.024-96.032 149.024-96.16 0-110.816-70.976-110.816-144.288v-278.016h-184.544v576zM64 576h192v-576h-192v576zM256 736c0-53.024-42.976-96-96-96s-96 42.976-96 96c0 53.024 42.976 96 96 96s96-42.976 96-96z" />
<glyph unicode="&#xa916;" glyph-name="twitter_1" d="M1024 765.568c-37.675-16.725-78.165-27.989-120.661-33.067 43.392 25.984 76.715 67.157 92.373 116.224-40.576-24.064-85.547-41.557-133.419-50.987-38.272 40.832-92.928 66.347-153.344 66.347-135.637 0-235.307-126.549-204.672-257.92-174.549 8.747-329.344 92.373-432.981 219.477-55.040-94.421-28.544-217.941 64.981-280.491-34.389 1.109-66.816 10.539-95.104 26.283-2.304-97.323 67.456-188.373 168.491-208.64-29.568-8.021-61.952-9.899-94.891-3.584 26.709-83.456 104.277-144.171 196.267-145.877-88.32-69.248-199.595-100.181-311.040-87.040 92.971-59.605 203.435-94.379 322.048-94.379 390.059 0 610.432 329.429 597.12 624.896 41.045 29.653 76.672 66.645 104.832 108.757z" />
<glyph unicode="&#xa917;" glyph-name="youtube_1" d="M836.907 824.149c-153.771 10.496-496.256 10.453-649.813 0-166.272-11.349-185.856-111.787-187.093-376.149 1.237-263.893 20.651-364.757 187.093-376.149 153.6-10.453 496.043-10.496 649.813 0 166.272 11.349 185.856 111.787 187.093 376.149-1.237 263.893-20.651 364.757-187.093 376.149zM384 277.333v341.333l341.333-170.368-341.333-170.965z" />
<glyph unicode="&#xe902;" glyph-name="clock_1" d="M502.355 740.839c-14.797 0-26.792-11.995-26.792-26.792v0-239.255c-13.623-8.861-22.506-24.011-22.506-41.236 0-0.009 0-0.017 0-0.026v0.001c0-0.068-0.001-0.148-0.001-0.228 0-27.226 22.071-49.298 49.298-49.298 17.363 0 32.629 8.976 41.412 22.541l0.117 0.193h259.885c14.797 0 26.792 11.995 26.792 26.792s-11.995 26.792-26.792 26.792v0h-260.153c-3.739 5.72-8.48 10.461-14.017 14.088l-0.183 0.112v239.255c0 14.797-11.995 26.792-26.792 26.792v0zM512-64c-282.77 0-512 229.23-512 512s229.23 512 512 512c282.77 0 512-229.23 512-512v0c-0.305-282.647-229.353-511.696-511.971-512h-0.029zM512 850.42c-221.954 0-401.884-179.93-401.884-401.884s179.93-401.884 401.884-401.884c221.954 0 401.884 179.93 401.884 401.884v0c0 221.954-179.93 401.884-401.884 401.884v0z" />
<glyph unicode="&#xe90e;" glyph-name="star" horiz-adv-x="1015" d="M214.055-64h-19.302l-12.373 21.777c-4.275 7.427-6.797 16.332-6.797 25.825 0 5.533 0.856 10.865 2.444 15.873l-0.102-0.372 104.429 334.322-265.032 202.919c-10.459 7.071-17.245 18.888-17.245 32.289 0 4.292 0.696 8.421 1.981 12.281l-0.079-0.274c5.647 14.087 19.186 23.854 35.007 23.854 1.792 0 3.555-0.125 5.281-0.368l-0.199 0.023h319.722l108.389 324.176c4.494 17.192 19.107 29.967 36.949 31.662l0.17 0.013c17.859-1.53 32.43-14.012 37.049-30.637l0.070-0.296 107.399-324.918h320.711c1.479 0.205 3.187 0.321 4.923 0.321 15.857 0 29.436-9.747 35.075-23.577l0.091-0.253c1.206-3.586 1.902-7.715 1.902-12.007 0-13.401-6.785-25.218-17.107-32.202l-0.137-0.087-264.785-203.167 104.429-333.58c1.518-4.141 2.396-8.923 2.396-13.91 0-8.975-2.844-17.285-7.679-24.079l0.086 0.128-10.641-14.6-19.302-1.732c-0.571-0.029-1.24-0.046-1.912-0.046-9.743 0-18.674 3.476-25.621 9.254l0.065-0.053-266.517 203.662-267.26-207.374-3.959-3.464c-5.754-6.151-13.572-10.309-22.344-11.366l-0.175-0.017zM209.106-39.254h4.949l6.187 5.444 5.197 3.959 282.355 219.004 281.612-214.797c2.971-2.466 6.824-3.963 11.027-3.963 0.125 0 0.25 0.001 0.375 0.004h6.91l3.959 5.197c1.722 2.693 2.745 5.978 2.745 9.502 0 2.371-0.463 4.633-1.303 6.702l0.043-0.119-109.378 349.665 278.395 213.808c4.481 2.423 7.474 7.086 7.474 12.449 0 1.383-0.199 2.72-0.57 3.983l0.025-0.1c-1.98 6.187-11.136 6.929-16.58 6.929h-337.786l-112.843 342.983c-3.712 10.888-11.136 13.858-14.6 13.858s-11.136-3.959-14.6-14.848l-113.090-341.003h-337.539c-5.444 0-14.6 0-16.58-6.929s0-11.136 6.929-16.333l278.89-214.797-109.626-349.417c-0.803-2.533-1.266-5.447-1.266-8.469 0-4.474 1.015-8.71 2.826-12.492l-0.075 0.174z" />
<glyph unicode="&#xe918;" glyph-name="student" horiz-adv-x="1316" d="M1246.276 547.942v-507.085c0-19.304 15.649-34.953 34.953-34.953s34.953 15.649 34.953 34.953v0 539.58zM655.36-64c245.76 0 414.788 92.297 414.788 172.305v357.171l-400.862-184.866c-4.061-2.051-8.851-3.26-13.921-3.277h-0.006c-0.707-0.054-1.531-0.085-2.362-0.085-4.569 0-8.919 0.935-12.87 2.624l0.214-0.081-400.589 185.685v-354.987c0-82.193 169.847-174.49 415.607-174.49zM654.268 350.515l654.541 304.742-654.541 304.742-654.268-304.742 654.268-304.742z" />
<glyph unicode="&#xe919;" glyph-name="exclusive" d="M936.015 960h-380.646l-536.024-536.024c-11.912-12.007-19.274-28.544-19.274-46.801s7.362-34.794 19.278-46.805l374.402-374.402c12.007-11.912 28.544-19.274 46.801-19.274s34.794 7.362 46.805 19.278l-0.004-0.004 536.648 536.024v379.71c0 0 0 0 0 0.001 0 48.656-39.354 88.119-87.968 88.297h-0.017zM920.414 762.501c-11.967-11.953-28.491-19.344-46.742-19.344-36.531 0-66.145 29.614-66.145 66.145s29.614 66.145 66.145 66.145c18.251 0 34.775-7.392 46.743-19.345l-0.001 0.001c11.894-11.957 19.247-28.442 19.247-46.645 0-18.358-7.478-34.968-19.555-46.952l-0.004-0.004z" />
<glyph unicode="&#xe920;" glyph-name="email" horiz-adv-x="1545" d="M1540.836 32.173h2.282l-54.335 143.771v695.49c0.001 0.163 0.002 0.357 0.002 0.55 0 48.232-38.793 87.404-86.88 88.016l-0.058 0.001h-1252.425c-48.996-0.42-88.646-39.842-89.435-88.709l-0.001-0.075v-700.706l-59.986-140.945h4.89c-1.656-5.659-2.608-12.159-2.608-18.882 0-0.009 0-0.018 0-0.028v0.001-21.734c0-27.602 16.953-52.922 44.446-52.922h1450.531c26.635 1.505 47.663 23.47 47.663 50.347 0 0.906-0.024 1.806-0.071 2.7l0.005-0.125v21.734c-0.021 7.743-1.495 15.135-4.163 21.927l0.142-0.41zM767.321 930.768c8.762 0 15.866-7.103 15.866-15.866v0c-0.348-8.597-7.259-15.47-15.839-15.756l-0.027-0.001c-0.434-0.042-0.938-0.066-1.447-0.066-8.762 0-15.866 7.103-15.866 15.866 0 8.354 6.457 15.2 14.652 15.82l0.053 0.003zM176.698 858.828h1200.263c7.281 0 9.346-1.63 9.346-8.911v-673.756h-1225.475v673.756c0 7.281 8.476 8.911 15.866 8.911zM910.548-0.319c0-19.145-15.52-34.666-34.666-34.666v0h-204.626c-19.145 0-34.666 15.52-34.666 34.666v0 0 17.17c0 19.145 15.52 34.666 34.666 34.666v0h204.626c19.145 0 34.666-15.52 34.666-34.666v0 0z" />
<glyph unicode="&#xe921;" glyph-name="Spicy" horiz-adv-x="852" d="M836.126 746.87c-26.188-68.668-69.724-125.757-125.333-167.691l-0.95-0.687c-6.516 12.841-13.14 23.718-20.487 34.043l0.548-0.811c77.491 56.444 127.281 146.874 127.281 248.932 0 27.433-3.598 54.027-10.346 79.333l0.487-2.145c-0.007 0.183-0.010 0.398-0.010 0.614 0 10.033 8.134 18.167 18.167 18.167 7.197 0 13.416-4.185 16.358-10.254l0.047-0.108c5.995-25.909 9.431-55.66 9.431-86.214 0-26.713-2.626-52.812-7.635-78.053l0.42 2.536zM14.179-4.182c104.128 62.034 305.738 217.118 427.59 522.856 17.034 43.343 41.864 80.269 73.049 110.714l0.062 0.060c55.387 50.956 141.791 99.697 219.334-4.431 0 0 250.35-172.808-307.953-576.028-12.948-9.126-28.147-18.662-43.837-27.423l-2.688-1.378c-62.034-31.017-217.118-97.482-354.479-81.973-14.464 3.232-25.113 15.958-25.113 31.172 0 10.952 5.518 20.615 13.926 26.36l0.11 0.071z" />
<glyph unicode="&#xe9a1;" glyph-name="calculator" horiz-adv-x="716" d="M563.786 960h-411.212c-84.264 0-152.574-68.31-152.574-152.574v0-719.085c0-84.264 68.31-152.574 152.574-152.574v0h411.212c84.264 0 152.574 68.31 152.574 152.574v0 719.085c0 84.264-68.31 152.574-152.574 152.574v0zM236.892 79.295h-119.867v119.867h119.867zM236.892 245.902h-119.867v119.867h119.867zM236.892 412.51h-119.867v119.867h119.867zM418.171 79.295h-119.751v119.867h119.751zM418.171 245.902h-119.751v119.867h119.751zM418.171 412.51h-119.751v119.867h119.751zM599.334 79.295h-119.867v119.867h119.867zM599.334 245.902h-119.867v119.867h119.867zM599.334 412.51h-119.867v119.867h119.867zM599.334 643.777c-0.033-13.907-11.314-25.168-25.226-25.168 0 0 0 0 0 0h-431.915c-13.887 0.033-25.135 11.281-25.168 25.165v150.779c0.066 13.85 11.309 25.052 25.168 25.052 0 0 0 0 0 0h431.915c13.834-0.033 25.044-11.222 25.11-25.046v-0.006z" />
<glyph unicode="&#xe9a3;" glyph-name="discount" d="M527.61 423.024c-3.122 3.122-3.122 9.366-6.244 12.488l-90.537-93.659c3.329-3.183 7.597-5.409 12.347-6.224l0.141-0.020c8.263-3.374 17.832-5.609 27.838-6.231l0.26-0.013c1.23-0.079 2.666-0.123 4.113-0.123 7.453 0 14.629 1.187 21.348 3.383l-0.486-0.137c9.537 4.355 17.756 9.575 25.149 15.751l-0.174-0.141c6.257 5.602 10.708 13.106 12.444 21.598l0.044 0.255c1.488 3.702 2.351 7.994 2.351 12.488s-0.863 8.786-2.433 12.72l0.082-0.232c-0.634 10.266-2.87 19.835-6.463 28.709l0.219-0.611zM586.927 604.098c-1.23 0.079-2.666 0.123-4.113 0.123-7.453 0-14.629-1.187-21.348-3.383l0.486 0.137c-8.861-3.145-16.269-8.541-21.777-15.509l-0.077-0.1c-6.049-6.304-11.246-13.494-15.364-21.339l-0.246-0.514c-2.058-6.234-3.245-13.41-3.245-20.863 0-1.447 0.045-2.883 0.133-4.308l-0.010 0.195c0.225-9.144 2.507-17.706 6.398-25.307l-0.154 0.331c0-3.122 3.122-6.244 3.122-9.366l87.415 87.415c-2.071 1.984-4.885 3.205-7.985 3.205-0.487 0-0.966-0.030-1.437-0.088l0.056 0.006c-6.244 6.244-15.61 6.244-21.854 9.366zM936.585 960h-380.878l-536.976-536.976c-11.561-12.174-18.672-28.671-18.672-46.829s7.111-34.655 18.7-46.859l-0.028 0.030 374.634-374.634c12.174-11.561 28.671-18.672 46.829-18.672s34.655 7.111 46.859 18.7l-0.030-0.028 536.976 536.976v380.878c0.018 0.659 0.029 1.436 0.029 2.214 0 47.071-38.158 85.229-85.229 85.229-0.779 0-1.555-0.010-2.328-0.031l0.114 0.002zM724.293 638.439l-43.707-43.707c8.828-10.953 17.098-23.207 24.298-36.137l0.678-1.326c6.686-12.76 10.609-27.874 10.609-43.905 0-5.442-0.452-10.779-1.321-15.974l0.078 0.562c0-9.366-9.366-15.61-15.61-12.488h-12.488c-4.891 0.834-9.159 3.061-12.497 6.252l0.009-0.008c-3.122 3.122-3.122 6.244-3.122 12.488 0.148 1.819 0.233 3.937 0.233 6.075 0 11.347-2.383 22.137-6.676 31.897l0.199-0.508c-3.514 9.75-8.837 18.087-15.619 24.985l0.009-0.009-99.902-99.902c5.122-8.083 9.379-17.41 12.29-27.314l0.198-0.784c5.114-11.585 9.429-25.172 12.271-39.293l0.217-1.293c0.656-4.080 1.031-8.784 1.031-13.576 0-9.645-1.519-18.936-4.33-27.646l0.178 0.636c-5.166-14.928-13.763-27.549-24.883-37.383l-0.093-0.081c-10.616-10.133-23.007-18.524-36.638-24.644l-0.825-0.331c-10.546-4.165-22.762-6.58-35.542-6.58-2.874 0-5.72 0.122-8.532 0.361l0.367-0.025c-15.087 1.371-28.875 5.835-41.091 12.751l0.506-0.264c-9.75 3.514-18.087 8.837-24.985 15.619l0.009-0.009-43.707-43.707c-2.741-2.915-6.622-4.73-10.927-4.73s-8.186 1.815-10.92 4.723l-0.007 0.008-6.244 6.244c-2.915 2.741-4.73 6.622-4.73 10.927s1.815 8.186 4.723 10.92l0.008 0.007 43.707 43.707c-9.608 12.627-17.985 27.020-24.485 42.4l-0.491 1.307c-5.882 17.712-9.304 38.104-9.366 59.287v0.030c0.618 8.361 7.249 14.992 15.554 15.606l0.056 0.003h12.488c8.361-0.618 14.992-7.249 15.606-15.554l0.003-0.056c-0.154-2.294-0.242-4.972-0.242-7.671 0-14.018 2.375-27.482 6.745-40.010l-0.259 0.852c4.019-9.759 8.204-17.97 12.953-25.801l-0.465 0.825 99.902 99.902c-3.122 9.366-9.366 18.732-12.488 28.098-5.772 10.873-9.22 23.749-9.365 37.418v0.046c-0.148 1.819-0.233 3.937-0.233 6.075 0 11.347 2.383 22.137 6.676 31.897l-0.199-0.508c6.452 14.457 14.843 26.847 25.024 37.514l-0.048-0.051c9.843 9.789 21.157 18.114 33.578 24.612l0.764 0.364c9.723 4.166 21.039 6.588 32.92 6.588 2.699 0 5.369-0.125 8.004-0.369l-0.338 0.025c14.795-0.491 28.677-3.89 41.258-9.641l-0.673 0.275c9.759-4.019 17.97-8.204 25.801-12.953l-0.825 0.465 46.829 46.829c2.741 2.915 6.622 4.73 10.927 4.73s8.186-1.815 10.92-4.723l0.007-0.008 6.244-6.244q9.366-18.732 0-28.098zM920.976 763.317c-12.143-11.631-28.65-18.791-46.829-18.791s-34.686 7.16-46.854 18.815l0.024-0.023c-11.631 12.143-18.791 28.65-18.791 46.829s7.16 34.686 18.815 46.854l-0.023-0.024c12.174 11.561 28.671 18.672 46.829 18.672s34.655-7.111 46.859-18.7l-0.030 0.028c12.991-11.497 21.139-28.212 21.139-46.829s-8.148-35.332-21.074-46.772l-0.066-0.057z" />
<glyph unicode="&#xe9a4;" glyph-name="oal" horiz-adv-x="1886" d="M284.134 928.913v0c3.73 0 49.117-3.109 88.908-52.848l1.243-1.243 708.158-798.931c36.682-39.791 76.474-76.474 119.373-108.804h-961.205l-202.064 959.961 245.586 1.865zM284.134 960l-284.134-1.865 215.121-1021.513h1116.639c-98.856 18.030-226.312 160.408-226.312 160.408l-708.158 798.31c-51.604 64.661-113.156 64.661-113.156 64.661v0zM698.21 427.794v0c2.487-13.056-17.409-37.304-17.409-37.304l-106.317-74.608 2.487-249.938-28.6-17.409-46.63 179.060-20.517 23.004-125.591-87.665-14.922-99.478-6.217-5.596-32.952 87.043-9.326 0.622h-2.487l0.622 2.487 3.109 9.326-70.878 60.93 6.839 3.73 98.856-20.517 125.591 88.908-14.922 27.356-152.325 105.695 26.113 21.139 233.773-88.287 106.317 74.608c0 0 42.278 14.3 45.387-3.109zM1105.447 97.030c0 0 127.456-142.378 226.312-160.408h554.589c-98.856 17.409-226.312 160.408-226.312 160.408l-708.158 798.31c-52.226 64.661-113.778 64.661-113.778 64.661l-284.134-1.865 65.904-313.977 485.576-547.128z" />
<glyph unicode="&#xe9a5;" glyph-name="rail" horiz-adv-x="707" d="M704.899-18.131l-99.177 272.736 17.356 2.479c20.381 2.873 36.214 19.129 38.414 39.473l0.017 0.198 18.596 131.409c7.304 50.448 11.475 108.698 11.475 167.923 0 62.346-4.622 123.613-13.543 183.476l0.828-6.76-9.422 65.705c-7.194 47.078-43.6 83.903-89.859 91.65l-0.64 0.088-162.898 24.794c-17.637 3.165-37.938 4.975-58.662 4.975-1.169 0-2.336-0.006-3.502-0.017l0.178 0.001c-1.204 0.015-2.625 0.024-4.048 0.024-20.471 0-40.518-1.813-59.99-5.287l2.053 0.304-162.402-24.794c-47.108-7.413-83.731-44.457-90.431-91.161l-0.068-0.577-11.157-75.622c-7.693-51.775-12.087-111.534-12.087-172.32s4.394-120.544 12.881-178.977l-0.794 6.657 17.356-121.492c2.751-20.020 18.411-35.68 38.198-38.405l0.233-0.026 17.356-2.479-99.177-272.736c-1.376-3.578-2.172-7.717-2.172-12.042 0-15.017 9.605-27.791 23.006-32.513l0.241-0.074c3.666-1.457 7.909-2.356 12.346-2.478l0.051-0.001c14.638 0.083 27.122 9.213 32.151 22.079l0.081 0.236 37.191 100.416h499.603l37.191-100.416c5.11-13.102 17.595-22.232 32.222-22.315h0.010c4.56 0.38 8.774 1.259 12.782 2.59l-0.385-0.111c12.521 4.7 21.27 16.57 21.27 30.484 0 4.666-0.984 9.103-2.756 13.113l0.082-0.208zM106.119 424.446c0 27.387 22.201 49.588 49.588 49.588s49.588-22.201 49.588-49.588c0-27.387-22.201-49.588-49.588-49.588v0c-27.387 0-49.588 22.201-49.588 49.588v0zM128.434 128.155l42.15 115.293 120.252-18.596c17.637-3.165 37.938-4.975 58.662-4.975 1.169 0 2.336 0.006 3.502 0.017l-0.178-0.001c1.204-0.015 2.625-0.024 4.048-0.024 20.471 0 40.518 1.813 59.99 5.287l-2.053-0.304 120.252 18.596 42.15-115.293zM551.175 374.857c-27.387 0-49.588 22.201-49.588 49.588s22.201 49.588 49.588 49.588c27.387 0 49.588-22.201 49.588-49.588v0c0-27.387-22.201-49.588-49.588-49.588v0zM85.044 570.731c-0.153 6.847-0.24 14.915-0.24 23.004 0 55.742 4.143 110.517 12.139 164.032l-0.741-6.039 9.918 73.143h494.644l8.678-61.985c8.073-50.163 12.686-107.992 12.686-166.898 0-8.881-0.105-17.738-0.313-26.569l0.024 1.312z" />
<glyph unicode="&#xe9a6;" glyph-name="sq" d="M326.656 82.432c0 0 117.76 176.128 128 193.536 13.312 21.504 13.312 55.296 2.048 73.728-6.144 9.216-181.248 287.744-181.248 287.744-15.36 29.696-12.288 50.176-1.024 65.536 17.408 25.6 48.128 70.656 48.128 70.656s212.992-334.848 222.208-349.184c22.528-37.888 16.384-75.776-2.048-107.52-15.36-26.624-153.6-233.472-153.6-233.472l-62.464-1.024zM288.768 64c0 0 136.192 199.68 146.432 216.064 12.288 20.48 10.24 49.152 0 65.536-6.144 9.216-195.584 307.2-195.584 307.2s-33.792-51.2-44.032-66.56c-10.24-15.36-16.384-34.816 1.024-66.56 0 0 135.168-214.016 141.312-223.232 11.264-17.408 10.24-49.152-2.048-69.632-9.216-15.36-149.504-219.136-149.504-219.136h403.456c40.96 0 63.488 16.384 82.944 44.032 17.408 24.576 83.968 120.832 94.208 136.192s30.72 25.6 38.912 25.6h31.744l-61.44 93.184h-98.304c-18.432 0-40.96-16.384-53.248-34.816-9.216-14.336-76.8-114.688-88.064-131.072-7.168-9.216-12.288-11.264-18.432-11.264-3.072 0-11.264 0-12.288 0 4.096 8.192 116.736 172.032 139.264 207.872 26.624 44.032 32.768 103.424 1.024 159.744-12.288 21.504-246.784 391.168-246.784 391.168s-31.744-45.056-44.032-64.512c-10.24-15.36-13.312-35.84 1.024-66.56 0 0 196.608-313.344 205.824-327.68 22.528-35.84 20.48-82.944 0-115.712-16.384-26.624-152.576-232.448-152.576-232.448h107.52c38.912 0 48.128 14.336 59.392 26.624 10.24 12.288 69.632 101.376 75.776 110.592 7.168 9.216 23.552 35.84 46.080 35.84h70.656v-1.024c-15.36-3.072-29.696-12.288-40.96-26.624-10.24-14.336-81.92-119.808-90.112-132.096-11.264-15.36-23.552-29.696-54.272-29.696l-294.912-1.024z" />
<glyph unicode="&#xe9a7;" glyph-name="bus" horiz-adv-x="1120" d="M1081.507 644.761h-39.946c-0.148 0.002-0.322 0.003-0.497 0.003-20.969 0-37.967-16.998-37.967-37.967 0-0.132 0.001-0.263 0.002-0.394v0.020h-31.907v243.138c0 0.040 0 0.087 0 0.134 0 60.403-48.547 109.468-108.752 110.304l-0.079 0.001h-604.754c-60.797-0.486-109.953-49.642-110.438-110.392v-243.184h-30.423c0.002 0.148 0.003 0.323 0.003 0.498 0 20.9-16.943 37.843-37.843 37.843-0.175 0-0.35-0.001-0.524-0.004h-40.044c-0.148 0.002-0.323 0.003-0.498 0.003-20.9 0-37.843-16.943-37.843-37.843 0-0.175 0.001-0.35 0.004-0.524v0.026-147.169c0.274-21.088 17.261-38.118 38.306-38.461h40.103c21.077 0.344 38.065 17.374 38.338 38.436v115.164h30.423v-463.892c0.486-60.797 49.642-109.953 110.392-110.438h4.869v-27.208c-0.014-0.371-0.022-0.806-0.022-1.244 0-19.554 15.649-35.453 35.107-35.857l0.038-0.001h41.677c0.261-0.007 0.568-0.011 0.876-0.011 20.012 0 36.236 16.223 36.236 36.236 0 0.308-0.004 0.615-0.011 0.922l0.001-0.045v27.208h367.675v-27.208c-0.007-0.261-0.011-0.568-0.011-0.876 0-20.012 16.223-36.236 36.236-36.236 0.308 0 0.615 0.004 0.922 0.011l-0.045-0.001h40.070c0.261-0.007 0.568-0.011 0.876-0.011 20.012 0 36.236 16.223 36.236 36.236 0 0.308-0.004 0.615-0.011 0.922l0.001-0.045v27.208h4.823c60.284 0.837 108.831 49.902 108.831 110.305 0 0.047 0 0.094 0 0.141v-0.007 463.892h31.907v-115.138c0.342-21.103 17.359-38.12 38.429-38.461h39.978c21.103 0.342 38.12 17.359 38.461 38.429v147.201c0.001 0.116 0.002 0.254 0.002 0.391 0 20.969-16.998 37.967-37.967 37.967-0.436 0-0.87-0.007-1.302-0.022l0.063 0.002zM401.314 907.192h317.094c8.252-0.747 14.669-7.632 14.669-16.015s-6.416-15.268-14.606-16.011l-0.062-0.005h-316.846c-0.229-0.012-0.498-0.019-0.768-0.019-8.401 0-15.212 6.81-15.212 15.212 0 0.311 0.009 0.621 0.028 0.927l-0.002-0.042c-0.017 0.267-0.026 0.578-0.026 0.892 0 8.333 6.755 15.088 15.088 15.088 0.314 0 0.625-0.010 0.935-0.028l-0.042 0.002zM300.769 99.246c-29.32 0.421-52.926 24.288-52.926 53.668 0 29.643 24.030 53.673 53.673 53.673 29.38 0 53.247-23.606 53.668-52.887v-0.040c0.001-0.148 0.002-0.322 0.002-0.497 0-29.78-24.141-53.921-53.921-53.921-0.175 0-0.349 0.001-0.524 0.002h0.027zM676.73 72.039h-234.976v32.031h234.976zM692.56 128.062h-267.007v32.031h267.007zM441.384 182.477v31.907h234.976v-31.907zM819.2 99.246c-0.769-0.039-1.67-0.062-2.576-0.062-29.643 0-53.673 24.030-53.673 53.673s24.030 53.673 53.673 53.673c0.906 0 1.807-0.022 2.702-0.067l-0.126 0.005c28.514-1.412 51.098-24.875 51.098-53.612s-22.584-52.199-50.972-53.607l-0.126-0.005zM881.036 383.691c-1.226-36.898-31.239-66.392-68.229-66.782h-507.091c-37.047 0.21-67.014 30.221-67.154 67.264v371.027c0.14 37.031 30.122 67.014 67.14 67.154h507.066c37.392-0.057 67.795-29.897 68.76-67.064l0.002-0.089z" />
<glyph unicode="&#xe9a11;" glyph-name="diamond" d="M0.16 448l512.032 512.032 512.032-512.032-512.032-512.032-512.032 512.032z" />
<glyph unicode="&#xe9a14;" glyph-name="flight-notification" horiz-adv-x="1132" d="M952.789 951.887h-773.408c-86.535 0-154.141-69.408-154.141-154.141v-472.338c0-84.732 69.408-154.141 154.141-154.141h73.014v-198.31c0-11.718 5.408-19.831 15.324-24.338 2.704-1.803 7.211-2.704 9.915-2.704 7.211 0 12.62 2.704 18.028 7.211l228.056 218.141h428.169c84.732 0 154.141 69.408 154.141 154.141v471.437c1.803 84.732-67.606 155.042-153.239 155.042zM1052.845 325.408c0-54.986-45.070-100.958-100.958-100.958h-437.183c-7.211 0-12.62-2.704-18.028-7.211l-190.197-182.986v164.056c0 14.423-11.718 27.042-27.042 27.042h-99.155c-54.986 0-100.958 45.070-100.958 100.958v471.437c0 54.986 45.070 100.958 100.958 100.958h774.31c54.085 0 99.155-45.070 99.155-100.958v-472.338zM796.845 724.732l-130.704-62.197-239.775 140.62-32.451-18.028 147.831-144.225 10.817-33.352-153.239-73.014-104.563 40.563-9.014-2.704 65.803-80.225-4.507-9.014-0.901-2.704 2.704-0.901 9.915-2.704 19.831-100.958 7.211 4.507 35.155 106.366 154.141 73.014 18.028-29.746 18.028-205.521 34.254 13.521 43.268 274.93 131.606 62.197c0 0 26.141 22.535 26.141 37.859 0 0 0 0 0 0 0 19.831-49.577 11.718-49.577 11.718z" />
</font>
</defs>
</svg>
